<?xml version="1.0" standalone="no"?>
<!DOCTYPE svg PUBLIC "-//W3C//DTD SVG 20010904//EN"
 "http://www.w3.org/TR/2001/REC-SVG-20010904/DTD/svg10.dtd">
<svg version="1.0" xmlns="http://www.w3.org/2000/svg"
 width="321.000000pt" height="70.000000pt" viewBox="0 0 321.000000 70.000000"
 preserveAspectRatio="xMidYMid meet">

<g transform="translate(0.000000,70.000000) scale(0.100000,-0.100000)"
fill="#000000" stroke="none">
<path d="M195 618 c-49 -18 -103 -56 -122 -85 -14 -22 -18 -48 -18 -128 0 -88
3 -107 28 -160 16 -33 38 -71 50 -84 27 -29 93 -60 128 -61 36 0 127 48 146
77 16 24 15 26 -24 64 l-40 41 -38 -26 c-21 -14 -44 -26 -52 -26 -21 0 -64
103 -70 169 -5 54 -4 59 23 80 15 12 37 21 48 19 18 -3 21 -11 24 -64 l3 -61
52 -6 c28 -4 55 -3 60 2 4 4 10 39 13 77 6 78 -10 122 -58 157 -32 24 -110 31
-153 15z"/>
<path d="M1237 615 c-32 -7 -60 -15 -63 -17 -4 -5 36 -489 41 -496 2 -2 33 2
70 9 l68 12 -7 176 c-3 97 -9 211 -13 254 -7 87 -1 83 -96 62z"/>
<path d="M1765 616 c-42 -19 -90 -73 -117 -131 -19 -42 -23 -67 -23 -155 0
-93 3 -109 23 -137 29 -41 118 -85 174 -85 88 -2 148 62 148 157 0 35 4 45 16
45 13 0 15 7 9 37 -4 21 -9 42 -12 47 -5 8 -102 1 -151 -11 -20 -5 -22 -10
-16 -42 3 -20 13 -41 21 -48 18 -14 8 -53 -13 -53 -8 0 -28 7 -44 15 -28 14
-30 20 -30 68 1 58 35 154 62 170 12 8 26 5 56 -15 l39 -27 37 38 c20 20 36
41 36 47 0 17 -53 62 -92 78 -45 19 -83 20 -123 2z"/>
<path d="M542 484 c-118 -60 -136 -250 -33 -337 40 -33 69 -41 127 -34 149 16
196 256 70 352 -46 35 -116 43 -164 19z m102 -110 c36 -35 12 -154 -30 -154
-39 0 -59 104 -28 148 18 26 37 28 58 6z"/>
<path d="M902 484 c-118 -60 -136 -250 -33 -337 40 -33 69 -41 127 -34 149 16
196 256 70 352 -46 35 -116 43 -164 19z m102 -110 c22 -21 21 -111 -1 -136
-21 -24 -39 -23 -57 4 -31 44 -11 148 29 148 7 0 21 -7 29 -16z"/>
<path d="M2130 441 c-61 -63 -100 -130 -100 -175 0 -59 150 -155 254 -164 45
-4 56 -1 81 21 24 20 29 32 28 66 -1 23 -5 46 -8 51 -10 17 -123 13 -127 -5
-2 -12 -7 -11 -28 5 l-24 18 49 7 c99 13 98 12 90 52 -9 49 -47 122 -80 156
-42 42 -69 36 -135 -32z m100 -106 c0 -15 -38 -41 -47 -32 -2 3 0 15 7 26 12
24 40 28 40 6z"/>
<path d="M2645 474 c-195 -48 -176 -38 -173 -92 3 -50 5 -51 65 -38 l28 6 -30
-16 c-16 -9 -45 -30 -63 -48 -76 -71 -82 -139 -15 -174 24 -13 108 -15 138 -3
11 5 25 4 32 -1 9 -7 36 -5 82 7 l70 17 -24 53 c-23 53 -23 55 -9 157 15 118
17 158 7 157 -5 0 -53 -11 -108 -25z m-22 -216 c-9 -34 -23 -48 -49 -48 -32 0
-31 23 4 49 36 27 52 27 45 -1z"/>
<path d="M2851 488 l-54 -10 6 -86 c4 -48 10 -133 13 -190 8 -115 1 -110 90
-71 l44 20 0 94 0 95 38 19 c37 19 38 19 63 0 l26 -19 22 56 c11 31 19 59 16
63 -2 4 -22 16 -44 26 l-40 18 -40 -33 -41 -32 0 31 c0 35 -5 36 -99 19z"/>
</g>
</svg>
